<mxfile host="app.diagrams.net" modified="2022-12-13T18:08:24.251Z" agent="5.0 (Macintosh; Intel Mac OS X 10_15_7) AppleWebKit/537.36 (KHTML, like Gecko) Chrome/107.0.0.0 Safari/537.36" etag="lrO-obPQBu6SNc5ZHE7i" version="20.3.6" type="github">
  <diagram id="C5RBs43oDa-KdzZeNtuy" name="Page-1">
    <mxGraphModel dx="2893" dy="1963" grid="1" gridSize="10" guides="1" tooltips="1" connect="1" arrows="1" fold="1" page="1" pageScale="1" pageWidth="827" pageHeight="1169" math="0" shadow="0">
      <root>
        <mxCell id="WIyWlLk6GJQsqaUBKTNV-0" />
        <mxCell id="WIyWlLk6GJQsqaUBKTNV-1" parent="WIyWlLk6GJQsqaUBKTNV-0" />
        <mxCell id="zkfFHV4jXpPFQw0GAbJ--0" value="Member" style="swimlane;fontStyle=0;align=center;verticalAlign=top;childLayout=stackLayout;horizontal=1;startSize=26;horizontalStack=0;resizeParent=1;resizeLast=0;collapsible=1;marginBottom=0;rounded=0;shadow=0;strokeWidth=1;" parent="WIyWlLk6GJQsqaUBKTNV-1" vertex="1">
          <mxGeometry x="360" y="-350" width="260" height="120" as="geometry">
            <mxRectangle x="230" y="140" width="160" height="26" as="alternateBounds" />
          </mxGeometry>
        </mxCell>
        <mxCell id="zkfFHV4jXpPFQw0GAbJ--1" value="- memberId: int&#xa;- location: enum" style="text;align=left;verticalAlign=top;spacingLeft=4;spacingRight=4;overflow=hidden;rotatable=0;points=[[0,0.5],[1,0.5]];portConstraint=eastwest;" parent="zkfFHV4jXpPFQw0GAbJ--0" vertex="1">
          <mxGeometry y="26" width="260" height="44" as="geometry" />
        </mxCell>
        <mxCell id="zkfFHV4jXpPFQw0GAbJ--4" value="" style="line;html=1;strokeWidth=1;align=left;verticalAlign=middle;spacingTop=-1;spacingLeft=3;spacingRight=3;rotatable=0;labelPosition=right;points=[];portConstraint=eastwest;" parent="zkfFHV4jXpPFQw0GAbJ--0" vertex="1">
          <mxGeometry y="70" width="260" height="8" as="geometry" />
        </mxCell>
        <mxCell id="zkfFHV4jXpPFQw0GAbJ--5" value="+ void ShowAllHouse()&#xa;+ void SearchHouseByRegion(string location)" style="text;align=left;verticalAlign=top;spacingLeft=4;spacingRight=4;overflow=hidden;rotatable=0;points=[[0,0.5],[1,0.5]];portConstraint=eastwest;" parent="zkfFHV4jXpPFQw0GAbJ--0" vertex="1">
          <mxGeometry y="78" width="260" height="42" as="geometry" />
        </mxCell>
        <mxCell id="zkfFHV4jXpPFQw0GAbJ--17" value="House" style="swimlane;fontStyle=0;align=center;verticalAlign=top;childLayout=stackLayout;horizontal=1;startSize=60;horizontalStack=0;resizeParent=1;resizeLast=0;collapsible=1;marginBottom=0;rounded=0;shadow=0;strokeWidth=1;" parent="WIyWlLk6GJQsqaUBKTNV-1" vertex="1">
          <mxGeometry x="530" y="130" width="160" height="240" as="geometry">
            <mxRectangle x="550" y="140" width="160" height="26" as="alternateBounds" />
          </mxGeometry>
        </mxCell>
        <mxCell id="zkfFHV4jXpPFQw0GAbJ--18" value="- houseId: int&#xa;- owner: Owner&#xa;- location: enum&#xa;- creditPerDay: int &#xa;- minScore: int" style="text;align=left;verticalAlign=top;spacingLeft=4;spacingRight=4;overflow=hidden;rotatable=0;points=[[0,0.5],[1,0.5]];portConstraint=eastwest;" parent="zkfFHV4jXpPFQw0GAbJ--17" vertex="1">
          <mxGeometry y="60" width="160" height="90" as="geometry" />
        </mxCell>
        <mxCell id="zkfFHV4jXpPFQw0GAbJ--23" value="" style="line;html=1;strokeWidth=1;align=left;verticalAlign=middle;spacingTop=-1;spacingLeft=3;spacingRight=3;rotatable=0;labelPosition=right;points=[];portConstraint=eastwest;" parent="zkfFHV4jXpPFQw0GAbJ--17" vertex="1">
          <mxGeometry y="150" width="160" height="8" as="geometry" />
        </mxCell>
        <mxCell id="zkfFHV4jXpPFQw0GAbJ--24" value="+ House(int Owner&#xa;, int houseId, int credit&#xa;, int mintScore&#xa;, enum location )" style="text;align=left;verticalAlign=top;spacingLeft=4;spacingRight=4;overflow=hidden;rotatable=0;points=[[0,0.5],[1,0.5]];portConstraint=eastwest;" parent="zkfFHV4jXpPFQw0GAbJ--17" vertex="1">
          <mxGeometry y="158" width="160" height="82" as="geometry" />
        </mxCell>
        <mxCell id="nBUo0i6XYViC7IQc_473-5" value="Guest" style="swimlane;fontStyle=2;align=center;verticalAlign=top;childLayout=stackLayout;horizontal=1;startSize=26;horizontalStack=0;resizeParent=1;resizeLast=0;collapsible=1;marginBottom=0;rounded=0;shadow=0;strokeWidth=1;" parent="WIyWlLk6GJQsqaUBKTNV-1" vertex="1">
          <mxGeometry x="-130" y="280" width="160" height="138" as="geometry">
            <mxRectangle x="230" y="140" width="160" height="26" as="alternateBounds" />
          </mxGeometry>
        </mxCell>
        <mxCell id="nBUo0i6XYViC7IQc_473-336" value="+ void login()&#xa;+ void register()" style="text;align=left;verticalAlign=top;spacingLeft=4;spacingRight=4;overflow=hidden;rotatable=0;points=[[0,0.5],[1,0.5]];portConstraint=eastwest;" parent="nBUo0i6XYViC7IQc_473-5" vertex="1">
          <mxGeometry y="26" width="160" height="44" as="geometry" />
        </mxCell>
        <mxCell id="nBUo0i6XYViC7IQc_473-11" value="Admin" style="swimlane;fontStyle=0;align=center;verticalAlign=top;childLayout=stackLayout;horizontal=1;startSize=26;horizontalStack=0;resizeParent=1;resizeLast=0;collapsible=1;marginBottom=0;rounded=0;shadow=0;strokeWidth=1;" parent="WIyWlLk6GJQsqaUBKTNV-1" vertex="1">
          <mxGeometry x="-300" y="-430" width="200" height="170" as="geometry">
            <mxRectangle x="230" y="140" width="160" height="26" as="alternateBounds" />
          </mxGeometry>
        </mxCell>
        <mxCell id="nBUo0i6XYViC7IQc_473-329" value="+ void showAllMembers()&#xa;+ void showAllHouses()&#xa;+ void viewHouseDetail(int id)&#xa;+ void viewMemberDetail(int id)&#xa;+ void viewAllRequest()&#xa;//optional&#xa;+ void searchHouseByCredit()&#xa;+ void searchHouseById()&#xa;+ void searchHouseByDateRange()" style="text;align=left;verticalAlign=top;spacingLeft=4;spacingRight=4;overflow=hidden;rotatable=0;points=[[0,0.5],[1,0.5]];portConstraint=eastwest;" parent="nBUo0i6XYViC7IQc_473-11" vertex="1">
          <mxGeometry y="26" width="200" height="144" as="geometry" />
        </mxCell>
        <mxCell id="nBUo0i6XYViC7IQc_473-29" value="Menu" style="swimlane;fontStyle=0;align=center;verticalAlign=top;childLayout=stackLayout;horizontal=1;startSize=26;horizontalStack=0;resizeParent=1;resizeLast=0;collapsible=1;marginBottom=0;rounded=0;shadow=0;strokeWidth=1;" parent="WIyWlLk6GJQsqaUBKTNV-1" vertex="1">
          <mxGeometry x="-525" y="-160" width="170" height="100" as="geometry">
            <mxRectangle x="230" y="140" width="160" height="26" as="alternateBounds" />
          </mxGeometry>
        </mxCell>
        <mxCell id="nBUo0i6XYViC7IQc_473-30" value="+ void showWelcomeMenu()&#xa;+ void showGuestMenu()&#xa;+ void showAdminMenu()&#xa;+ void showMemberMenu()" style="text;align=left;verticalAlign=top;spacingLeft=4;spacingRight=4;overflow=hidden;rotatable=0;points=[[0,0.5],[1,0.5]];portConstraint=eastwest;" parent="nBUo0i6XYViC7IQc_473-29" vertex="1">
          <mxGeometry y="26" width="170" height="74" as="geometry" />
        </mxCell>
        <mxCell id="nBUo0i6XYViC7IQc_473-96" value="User" style="swimlane;fontStyle=0;align=center;verticalAlign=top;childLayout=stackLayout;horizontal=1;startSize=26;horizontalStack=0;resizeParent=1;resizeLast=0;collapsible=1;marginBottom=0;rounded=0;shadow=0;strokeWidth=1;" parent="WIyWlLk6GJQsqaUBKTNV-1" vertex="1">
          <mxGeometry x="20" y="-630" width="160" height="180" as="geometry">
            <mxRectangle x="230" y="140" width="160" height="26" as="alternateBounds" />
          </mxGeometry>
        </mxCell>
        <mxCell id="nBUo0i6XYViC7IQc_473-97" value="- userName : string&#xa;- fullName : string &#xa;- password : string&#xa;- phoneNum : string&#xa;- isAdmin : bool" style="text;align=left;verticalAlign=top;spacingLeft=4;spacingRight=4;overflow=hidden;rotatable=0;points=[[0,0.5],[1,0.5]];portConstraint=eastwest;" parent="nBUo0i6XYViC7IQc_473-96" vertex="1">
          <mxGeometry y="26" width="160" height="84" as="geometry" />
        </mxCell>
        <mxCell id="nBUo0i6XYViC7IQc_473-100" value="" style="line;html=1;strokeWidth=1;align=left;verticalAlign=middle;spacingTop=-1;spacingLeft=3;spacingRight=3;rotatable=0;labelPosition=right;points=[];portConstraint=eastwest;" parent="nBUo0i6XYViC7IQc_473-96" vertex="1">
          <mxGeometry y="110" width="160" height="18" as="geometry" />
        </mxCell>
        <mxCell id="nBUo0i6XYViC7IQc_473-101" value="+ void ShowAccountInfo()" style="text;align=left;verticalAlign=top;spacingLeft=4;spacingRight=4;overflow=hidden;rotatable=0;points=[[0,0.5],[1,0.5]];portConstraint=eastwest;" parent="nBUo0i6XYViC7IQc_473-96" vertex="1">
          <mxGeometry y="128" width="160" height="52" as="geometry" />
        </mxCell>
        <mxCell id="nBUo0i6XYViC7IQc_473-102" value="" style="endArrow=block;html=1;endSize=12;startArrow=none;startSize=12;startFill=0;rounded=0;fontSize=16;fillColor=none;jumpSize=9;endFill=0;" parent="WIyWlLk6GJQsqaUBKTNV-1" source="nBUo0i6XYViC7IQc_473-11" target="nBUo0i6XYViC7IQc_473-96" edge="1">
          <mxGeometry relative="1" as="geometry">
            <mxPoint x="186" y="500" as="sourcePoint" />
            <mxPoint x="-130" y="500" as="targetPoint" />
          </mxGeometry>
        </mxCell>
        <mxCell id="nBUo0i6XYViC7IQc_473-105" value="" style="endArrow=block;html=1;endSize=12;startArrow=none;startSize=12;startFill=0;rounded=0;fontSize=16;fillColor=none;jumpSize=9;endFill=0;" parent="WIyWlLk6GJQsqaUBKTNV-1" source="zkfFHV4jXpPFQw0GAbJ--0" target="nBUo0i6XYViC7IQc_473-96" edge="1">
          <mxGeometry relative="1" as="geometry">
            <mxPoint x="424" y="315.76321167883214" as="sourcePoint" />
            <mxPoint x="310" y="269.99678832116786" as="targetPoint" />
          </mxGeometry>
        </mxCell>
        <mxCell id="nBUo0i6XYViC7IQc_473-106" style="edgeStyle=none;rounded=0;jumpSize=9;orthogonalLoop=1;jettySize=auto;html=1;exitX=0.75;exitY=0;exitDx=0;exitDy=0;strokeWidth=4;fontSize=16;startArrow=none;startFill=0;endArrow=block;endFill=0;startSize=12;endSize=9;fillColor=none;" parent="WIyWlLk6GJQsqaUBKTNV-1" source="nBUo0i6XYViC7IQc_473-96" target="nBUo0i6XYViC7IQc_473-96" edge="1">
          <mxGeometry relative="1" as="geometry" />
        </mxCell>
        <mxCell id="nBUo0i6XYViC7IQc_473-110" value="rate" style="endArrow=block;html=1;endSize=12;startArrow=none;startSize=12;startFill=0;rounded=0;fontSize=16;fillColor=none;jumpSize=9;endFill=1;" parent="WIyWlLk6GJQsqaUBKTNV-1" source="nBUo0i6XYViC7IQc_473-140" target="nBUo0i6XYViC7IQc_473-116" edge="1">
          <mxGeometry relative="1" as="geometry">
            <mxPoint x="670" y="-250" as="sourcePoint" />
            <mxPoint x="800" y="-170" as="targetPoint" />
          </mxGeometry>
        </mxCell>
        <mxCell id="nBUo0i6XYViC7IQc_473-111" value="n" style="edgeLabel;resizable=0;html=1;align=left;verticalAlign=top;fontSize=16;" parent="nBUo0i6XYViC7IQc_473-110" connectable="0" vertex="1">
          <mxGeometry x="-1" relative="1" as="geometry">
            <mxPoint x="-59" y="80" as="offset" />
          </mxGeometry>
        </mxCell>
        <mxCell id="nBUo0i6XYViC7IQc_473-112" value="1" style="edgeLabel;resizable=0;html=1;align=right;verticalAlign=top;fontSize=16;" parent="nBUo0i6XYViC7IQc_473-110" connectable="0" vertex="1">
          <mxGeometry x="1" relative="1" as="geometry">
            <mxPoint x="49" y="-132" as="offset" />
          </mxGeometry>
        </mxCell>
        <mxCell id="nBUo0i6XYViC7IQc_473-116" value="Tenant" style="swimlane;fontStyle=0;align=center;verticalAlign=top;childLayout=stackLayout;horizontal=1;startSize=26;horizontalStack=0;resizeParent=1;resizeLast=0;collapsible=1;marginBottom=0;rounded=0;shadow=0;strokeWidth=1;" parent="WIyWlLk6GJQsqaUBKTNV-1" vertex="1">
          <mxGeometry x="530" y="-138" width="160" height="160" as="geometry">
            <mxRectangle x="230" y="140" width="160" height="26" as="alternateBounds" />
          </mxGeometry>
        </mxCell>
        <mxCell id="nBUo0i6XYViC7IQc_473-117" value="- credit: int &#xa;- score: int" style="text;align=left;verticalAlign=top;spacingLeft=4;spacingRight=4;overflow=hidden;rotatable=0;points=[[0,0.5],[1,0.5]];portConstraint=eastwest;" parent="nBUo0i6XYViC7IQc_473-116" vertex="1">
          <mxGeometry y="26" width="160" height="44" as="geometry" />
        </mxCell>
        <mxCell id="nBUo0i6XYViC7IQc_473-120" value="" style="line;html=1;strokeWidth=1;align=left;verticalAlign=middle;spacingTop=-1;spacingLeft=3;spacingRight=3;rotatable=0;labelPosition=right;points=[];portConstraint=eastwest;" parent="nBUo0i6XYViC7IQc_473-116" vertex="1">
          <mxGeometry y="70" width="160" height="8" as="geometry" />
        </mxCell>
        <mxCell id="nBUo0i6XYViC7IQc_473-121" value="+ void viewAllHouse()&#xa;+ void requestHouse()&#xa;+ void cancelRequest()&#xa;+ void rateHouse()" style="text;align=left;verticalAlign=top;spacingLeft=4;spacingRight=4;overflow=hidden;rotatable=0;points=[[0,0.5],[1,0.5]];portConstraint=eastwest;" parent="nBUo0i6XYViC7IQc_473-116" vertex="1">
          <mxGeometry y="78" width="160" height="72" as="geometry" />
        </mxCell>
        <mxCell id="nBUo0i6XYViC7IQc_473-122" value="" style="endArrow=block;html=1;endSize=12;startArrow=none;startSize=12;startFill=0;rounded=0;fontSize=16;fillColor=none;jumpSize=9;endFill=0;" parent="WIyWlLk6GJQsqaUBKTNV-1" source="nBUo0i6XYViC7IQc_473-116" target="zkfFHV4jXpPFQw0GAbJ--0" edge="1">
          <mxGeometry relative="1" as="geometry">
            <mxPoint x="540" y="-230" as="sourcePoint" />
            <mxPoint x="750" y="-150" as="targetPoint" />
          </mxGeometry>
        </mxCell>
        <mxCell id="nBUo0i6XYViC7IQc_473-123" value="" style="endArrow=block;html=1;endSize=12;startArrow=none;startSize=12;startFill=0;rounded=0;fontSize=16;fillColor=none;jumpSize=9;endFill=0;" parent="WIyWlLk6GJQsqaUBKTNV-1" source="nBUo0i6XYViC7IQc_473-140" target="zkfFHV4jXpPFQw0GAbJ--0" edge="1">
          <mxGeometry relative="1" as="geometry">
            <mxPoint x="620" y="-250" as="sourcePoint" />
            <mxPoint x="610" y="-540" as="targetPoint" />
          </mxGeometry>
        </mxCell>
        <mxCell id="nBUo0i6XYViC7IQc_473-137" value="" style="endArrow=none;html=1;rounded=0;" parent="WIyWlLk6GJQsqaUBKTNV-1" source="zkfFHV4jXpPFQw0GAbJ--17" target="nBUo0i6XYViC7IQc_473-177" edge="1">
          <mxGeometry relative="1" as="geometry">
            <mxPoint x="-144" y="650" as="sourcePoint" />
            <mxPoint x="-24" y="900" as="targetPoint" />
          </mxGeometry>
        </mxCell>
        <mxCell id="nBUo0i6XYViC7IQc_473-140" value="Owner" style="swimlane;fontStyle=0;align=center;verticalAlign=top;childLayout=stackLayout;horizontal=1;startSize=26;horizontalStack=0;resizeParent=1;resizeLast=0;collapsible=1;marginBottom=0;rounded=0;shadow=0;strokeWidth=1;" parent="WIyWlLk6GJQsqaUBKTNV-1" vertex="1">
          <mxGeometry x="650" y="-410" width="160" height="140" as="geometry">
            <mxRectangle x="230" y="140" width="160" height="26" as="alternateBounds" />
          </mxGeometry>
        </mxCell>
        <mxCell id="nBUo0i6XYViC7IQc_473-145" value="+ void viewAllRequest()&#xa;+ void acceptRequest()&#xa;+ void declineRequest()&#xa;+ void rateTenant()&#xa;+ void deleteHouseList()&#xa;+ void addHouseList()" style="text;align=left;verticalAlign=top;spacingLeft=4;spacingRight=4;overflow=hidden;rotatable=0;points=[[0,0.5],[1,0.5]];portConstraint=eastwest;" parent="nBUo0i6XYViC7IQc_473-140" vertex="1">
          <mxGeometry y="26" width="160" height="114" as="geometry" />
        </mxCell>
        <mxCell id="nBUo0i6XYViC7IQc_473-151" value="Request" style="swimlane;fontStyle=0;align=center;verticalAlign=top;childLayout=stackLayout;horizontal=1;startSize=60;horizontalStack=0;resizeParent=1;resizeLast=0;collapsible=1;marginBottom=0;rounded=0;shadow=0;strokeWidth=1;" parent="WIyWlLk6GJQsqaUBKTNV-1" vertex="1">
          <mxGeometry x="90" y="130" width="160" height="190" as="geometry">
            <mxRectangle x="550" y="140" width="160" height="26" as="alternateBounds" />
          </mxGeometry>
        </mxCell>
        <mxCell id="nBUo0i6XYViC7IQc_473-152" value="- requestId: int &#xa;- houseId: int &#xa;- tenantId: int &#xa;- status: enum&#xa;" style="text;align=left;verticalAlign=top;spacingLeft=4;spacingRight=4;overflow=hidden;rotatable=0;points=[[0,0.5],[1,0.5]];portConstraint=eastwest;" parent="nBUo0i6XYViC7IQc_473-151" vertex="1">
          <mxGeometry y="60" width="160" height="60" as="geometry" />
        </mxCell>
        <mxCell id="nBUo0i6XYViC7IQc_473-157" value="" style="line;html=1;strokeWidth=1;align=left;verticalAlign=middle;spacingTop=-1;spacingLeft=3;spacingRight=3;rotatable=0;labelPosition=right;points=[];portConstraint=eastwest;" parent="nBUo0i6XYViC7IQc_473-151" vertex="1">
          <mxGeometry y="120" width="160" height="8" as="geometry" />
        </mxCell>
        <mxCell id="nBUo0i6XYViC7IQc_473-159" value="+ Request (int requestId,&#xa; int houseId, int tenantId, &#xa;enum status)" style="text;align=left;verticalAlign=top;spacingLeft=4;spacingRight=4;overflow=hidden;rotatable=0;points=[[0,0.5],[1,0.5]];portConstraint=eastwest;" parent="nBUo0i6XYViC7IQc_473-151" vertex="1">
          <mxGeometry y="128" width="160" height="62" as="geometry" />
        </mxCell>
        <mxCell id="nBUo0i6XYViC7IQc_473-167" value="Rating" style="swimlane;fontStyle=0;align=center;verticalAlign=top;childLayout=stackLayout;horizontal=1;startSize=60;horizontalStack=0;resizeParent=1;resizeLast=0;collapsible=1;marginBottom=0;rounded=0;shadow=0;strokeWidth=1;" parent="WIyWlLk6GJQsqaUBKTNV-1" vertex="1">
          <mxGeometry x="260" y="-138" width="200" height="240" as="geometry">
            <mxRectangle x="550" y="140" width="160" height="26" as="alternateBounds" />
          </mxGeometry>
        </mxCell>
        <mxCell id="nBUo0i6XYViC7IQc_473-168" value="- ratingId: int&#xa;- score : int &#xa;- comment : string&#xa;- currentDate : string&#xa;- tenantId: int&#xa;- houseId: int" style="text;align=left;verticalAlign=top;spacingLeft=4;spacingRight=4;overflow=hidden;rotatable=0;points=[[0,0.5],[1,0.5]];portConstraint=eastwest;" parent="nBUo0i6XYViC7IQc_473-167" vertex="1">
          <mxGeometry y="60" width="200" height="100" as="geometry" />
        </mxCell>
        <mxCell id="nBUo0i6XYViC7IQc_473-173" value="" style="line;html=1;strokeWidth=1;align=left;verticalAlign=middle;spacingTop=-1;spacingLeft=3;spacingRight=3;rotatable=0;labelPosition=right;points=[];portConstraint=eastwest;" parent="nBUo0i6XYViC7IQc_473-167" vertex="1">
          <mxGeometry y="160" width="200" height="8" as="geometry" />
        </mxCell>
        <mxCell id="nBUo0i6XYViC7IQc_473-174" value="Rating(int ratingId, int score&#xa;, string comment, string currentDate&#xa;, int tenantId, int houseId)" style="text;align=left;verticalAlign=top;spacingLeft=4;spacingRight=4;overflow=hidden;rotatable=0;points=[[0,0.5],[1,0.5]];portConstraint=eastwest;" parent="nBUo0i6XYViC7IQc_473-167" vertex="1">
          <mxGeometry y="168" width="200" height="62" as="geometry" />
        </mxCell>
        <mxCell id="nBUo0i6XYViC7IQc_473-177" value="Controller" style="swimlane;fontStyle=0;align=center;verticalAlign=top;childLayout=stackLayout;horizontal=1;startSize=60;horizontalStack=0;resizeParent=1;resizeLast=0;collapsible=1;marginBottom=0;rounded=0;shadow=0;strokeWidth=1;" parent="WIyWlLk6GJQsqaUBKTNV-1" vertex="1">
          <mxGeometry x="425" y="600" width="350" height="140" as="geometry">
            <mxRectangle x="550" y="140" width="160" height="26" as="alternateBounds" />
          </mxGeometry>
        </mxCell>
        <mxCell id="nBUo0i6XYViC7IQc_473-184" value="+ void deleteRowData (int index, string dataFile)&#xa;+ void updateCellAtId (int id, string data, string dataFile)&#xa;+ void updateRowAtIndex (int index, string data, string dataFile)&#xa;+ void addData(string data, string dataFile) &#xa;&#xa; " style="text;align=left;verticalAlign=top;spacingLeft=4;spacingRight=4;overflow=hidden;rotatable=0;points=[[0,0.5],[1,0.5]];portConstraint=eastwest;" parent="nBUo0i6XYViC7IQc_473-177" vertex="1">
          <mxGeometry y="60" width="350" height="80" as="geometry" />
        </mxCell>
        <mxCell id="nBUo0i6XYViC7IQc_473-212" value="HouseList" style="swimlane;fontStyle=0;align=center;verticalAlign=top;childLayout=stackLayout;horizontal=1;startSize=60;horizontalStack=0;resizeParent=1;resizeLast=0;collapsible=1;marginBottom=0;rounded=0;shadow=0;strokeWidth=1;" parent="WIyWlLk6GJQsqaUBKTNV-1" vertex="1">
          <mxGeometry x="840" y="230" width="160" height="256" as="geometry">
            <mxRectangle x="550" y="140" width="160" height="26" as="alternateBounds" />
          </mxGeometry>
        </mxCell>
        <mxCell id="nBUo0i6XYViC7IQc_473-213" value="- houseListId: int&#xa;- OwnerId: int&#xa;- currentDate: string&#xa;- HouseId: int&#xa;- DateRange: string&#xa;- status: enum " style="text;align=left;verticalAlign=top;spacingLeft=4;spacingRight=4;overflow=hidden;rotatable=0;points=[[0,0.5],[1,0.5]];portConstraint=eastwest;" parent="nBUo0i6XYViC7IQc_473-212" vertex="1">
          <mxGeometry y="60" width="160" height="100" as="geometry" />
        </mxCell>
        <mxCell id="nBUo0i6XYViC7IQc_473-218" value="" style="line;html=1;strokeWidth=1;align=left;verticalAlign=middle;spacingTop=-1;spacingLeft=3;spacingRight=3;rotatable=0;labelPosition=right;points=[];portConstraint=eastwest;" parent="nBUo0i6XYViC7IQc_473-212" vertex="1">
          <mxGeometry y="160" width="160" height="8" as="geometry" />
        </mxCell>
        <mxCell id="nBUo0i6XYViC7IQc_473-348" value="+ HouseList (int houseLstId&#xa;, int OwnerId&#xa;, string currentDate&#xa;, int houseId, int DateRange&#xa;, enum status )" style="text;align=left;verticalAlign=top;spacingLeft=4;spacingRight=4;overflow=hidden;rotatable=0;points=[[0,0.5],[1,0.5]];portConstraint=eastwest;" parent="nBUo0i6XYViC7IQc_473-212" vertex="1">
          <mxGeometry y="168" width="160" height="80" as="geometry" />
        </mxCell>
        <mxCell id="nBUo0i6XYViC7IQc_473-237" value="Registration" style="swimlane;fontStyle=2;align=center;verticalAlign=top;childLayout=stackLayout;horizontal=1;startSize=26;horizontalStack=0;resizeParent=1;resizeLast=0;collapsible=1;marginBottom=0;rounded=0;shadow=0;strokeWidth=1;" parent="WIyWlLk6GJQsqaUBKTNV-1" vertex="1">
          <mxGeometry x="20" y="640" width="280" height="190" as="geometry">
            <mxRectangle x="230" y="140" width="160" height="26" as="alternateBounds" />
          </mxGeometry>
        </mxCell>
        <mxCell id="nBUo0i6XYViC7IQc_473-238" value="- memberId&#xa;- userName : string&#xa;- fullName : string &#xa;- password : string&#xa;- phoneNum : string&#xa;- isAdmin : bool (false)&#xa;" style="text;align=left;verticalAlign=top;spacingLeft=4;spacingRight=4;overflow=hidden;rotatable=0;points=[[0,0.5],[1,0.5]];portConstraint=eastwest;" parent="nBUo0i6XYViC7IQc_473-237" vertex="1">
          <mxGeometry y="26" width="280" height="94" as="geometry" />
        </mxCell>
        <mxCell id="nBUo0i6XYViC7IQc_473-242" value="" style="line;html=1;strokeWidth=1;align=left;verticalAlign=middle;spacingTop=-1;spacingLeft=3;spacingRight=3;rotatable=0;labelPosition=right;points=[];portConstraint=eastwest;" parent="nBUo0i6XYViC7IQc_473-237" vertex="1">
          <mxGeometry y="120" width="280" height="8" as="geometry" />
        </mxCell>
        <mxCell id="nBUo0i6XYViC7IQc_473-243" value="Registration(string userName&#xa;,string fullName, string password&#xa;,string phoneNum )" style="text;align=left;verticalAlign=top;spacingLeft=4;spacingRight=4;overflow=hidden;rotatable=0;points=[[0,0.5],[1,0.5]];portConstraint=eastwest;" parent="nBUo0i6XYViC7IQc_473-237" vertex="1">
          <mxGeometry y="128" width="280" height="62" as="geometry" />
        </mxCell>
        <mxCell id="nBUo0i6XYViC7IQc_473-249" value="Middleware" style="swimlane;fontStyle=2;align=center;verticalAlign=top;childLayout=stackLayout;horizontal=1;startSize=26;horizontalStack=0;resizeParent=1;resizeLast=0;collapsible=1;marginBottom=0;rounded=0;shadow=0;strokeWidth=1;" parent="WIyWlLk6GJQsqaUBKTNV-1" vertex="1">
          <mxGeometry x="-680" y="40" width="240" height="210" as="geometry">
            <mxRectangle x="230" y="140" width="160" height="26" as="alternateBounds" />
          </mxGeometry>
        </mxCell>
        <mxCell id="nBUo0i6XYViC7IQc_473-254" value="+ int loginVerify (Login) &#xa;//return 1 for member, return 2 for admin&#xa;and -1 incorrect&#xa; " style="text;align=left;verticalAlign=top;spacingLeft=4;spacingRight=4;overflow=hidden;rotatable=0;points=[[0,0.5],[1,0.5]];portConstraint=eastwest;" parent="nBUo0i6XYViC7IQc_473-249" vertex="1">
          <mxGeometry y="26" width="240" height="54" as="geometry" />
        </mxCell>
        <mxCell id="nBUo0i6XYViC7IQc_473-22" value="+ bool inputUsernameAuthenticate (string)&#xa;+ bool inputNameAuthenticate (string)&#xa;+ bool inputPasswordAuthenticate (string)&#xa;+ bool inputPhoneAuthenticate (string)&#xa;+ bool inputNumAuthenticate (string)&#xa;+ bool inputRangeAuthenticate (string) &#xa;+ bool creditAuth(int credits) &#xa;+ bool scoreAuth(int scores)" style="text;align=left;verticalAlign=top;spacingLeft=4;spacingRight=4;overflow=hidden;rotatable=0;points=[[0,0.5],[1,0.5]];portConstraint=eastwest;" parent="nBUo0i6XYViC7IQc_473-249" vertex="1">
          <mxGeometry y="80" width="240" height="130" as="geometry" />
        </mxCell>
        <mxCell id="nBUo0i6XYViC7IQc_473-255" value="Login" style="swimlane;fontStyle=2;align=center;verticalAlign=top;childLayout=stackLayout;horizontal=1;startSize=26;horizontalStack=0;resizeParent=1;resizeLast=0;collapsible=1;marginBottom=0;rounded=0;shadow=0;strokeWidth=1;" parent="WIyWlLk6GJQsqaUBKTNV-1" vertex="1">
          <mxGeometry x="-130" y="-20" width="220" height="138" as="geometry">
            <mxRectangle x="230" y="140" width="160" height="26" as="alternateBounds" />
          </mxGeometry>
        </mxCell>
        <mxCell id="nBUo0i6XYViC7IQc_473-256" value="- userName : string &#xa;- password : string&#xa;" style="text;align=left;verticalAlign=top;spacingLeft=4;spacingRight=4;overflow=hidden;rotatable=0;points=[[0,0.5],[1,0.5]];portConstraint=eastwest;" parent="nBUo0i6XYViC7IQc_473-255" vertex="1">
          <mxGeometry y="26" width="220" height="44" as="geometry" />
        </mxCell>
        <mxCell id="nBUo0i6XYViC7IQc_473-259" value="" style="line;html=1;strokeWidth=1;align=left;verticalAlign=middle;spacingTop=-1;spacingLeft=3;spacingRight=3;rotatable=0;labelPosition=right;points=[];portConstraint=eastwest;" parent="nBUo0i6XYViC7IQc_473-255" vertex="1">
          <mxGeometry y="70" width="220" height="8" as="geometry" />
        </mxCell>
        <mxCell id="nBUo0i6XYViC7IQc_473-306" value="+ Login (string userName, password)" style="text;align=left;verticalAlign=top;spacingLeft=4;spacingRight=4;overflow=hidden;rotatable=0;points=[[0,0.5],[1,0.5]];portConstraint=eastwest;" parent="nBUo0i6XYViC7IQc_473-255" vertex="1">
          <mxGeometry y="78" width="220" height="44" as="geometry" />
        </mxCell>
        <mxCell id="nBUo0i6XYViC7IQc_473-261" value="make" style="endArrow=block;html=1;endSize=12;startArrow=none;startSize=12;startFill=0;rounded=0;fontSize=16;fillColor=none;jumpSize=9;endFill=1;" parent="WIyWlLk6GJQsqaUBKTNV-1" source="nBUo0i6XYViC7IQc_473-5" target="nBUo0i6XYViC7IQc_473-237" edge="1">
          <mxGeometry relative="1" as="geometry">
            <mxPoint x="380" y="870" as="sourcePoint" />
            <mxPoint x="470" y="920" as="targetPoint" />
          </mxGeometry>
        </mxCell>
        <mxCell id="nBUo0i6XYViC7IQc_473-262" value="1" style="edgeLabel;resizable=0;html=1;align=left;verticalAlign=top;fontSize=16;" parent="nBUo0i6XYViC7IQc_473-261" connectable="0" vertex="1">
          <mxGeometry x="-1" relative="1" as="geometry">
            <mxPoint x="-8" y="2" as="offset" />
          </mxGeometry>
        </mxCell>
        <mxCell id="nBUo0i6XYViC7IQc_473-263" value="1" style="edgeLabel;resizable=0;html=1;align=right;verticalAlign=top;fontSize=16;" parent="nBUo0i6XYViC7IQc_473-261" connectable="0" vertex="1">
          <mxGeometry x="1" relative="1" as="geometry">
            <mxPoint x="-23" y="-30" as="offset" />
          </mxGeometry>
        </mxCell>
        <mxCell id="nBUo0i6XYViC7IQc_473-264" value="make" style="endArrow=block;html=1;endSize=12;startArrow=none;startSize=12;startFill=0;rounded=0;fontSize=16;fillColor=none;jumpSize=9;endFill=1;" parent="WIyWlLk6GJQsqaUBKTNV-1" source="nBUo0i6XYViC7IQc_473-5" target="nBUo0i6XYViC7IQc_473-255" edge="1">
          <mxGeometry relative="1" as="geometry">
            <mxPoint x="-190" y="260" as="sourcePoint" />
            <mxPoint x="-80" y="200" as="targetPoint" />
          </mxGeometry>
        </mxCell>
        <mxCell id="nBUo0i6XYViC7IQc_473-265" value="1" style="edgeLabel;resizable=0;html=1;align=left;verticalAlign=top;fontSize=16;" parent="nBUo0i6XYViC7IQc_473-264" connectable="0" vertex="1">
          <mxGeometry x="-1" relative="1" as="geometry">
            <mxPoint x="-14" y="-30" as="offset" />
          </mxGeometry>
        </mxCell>
        <mxCell id="nBUo0i6XYViC7IQc_473-266" value="0..1" style="edgeLabel;resizable=0;html=1;align=right;verticalAlign=top;fontSize=16;" parent="nBUo0i6XYViC7IQc_473-264" connectable="0" vertex="1">
          <mxGeometry x="1" relative="1" as="geometry">
            <mxPoint x="-8" y="13" as="offset" />
          </mxGeometry>
        </mxCell>
        <mxCell id="nBUo0i6XYViC7IQc_473-271" value="Utility" style="swimlane;fontStyle=2;align=center;verticalAlign=top;childLayout=stackLayout;horizontal=1;startSize=26;horizontalStack=0;resizeParent=1;resizeLast=0;collapsible=1;marginBottom=0;rounded=0;shadow=0;strokeWidth=1;" parent="WIyWlLk6GJQsqaUBKTNV-1" vertex="1">
          <mxGeometry x="-680" y="350" width="410" height="150" as="geometry">
            <mxRectangle x="230" y="140" width="160" height="26" as="alternateBounds" />
          </mxGeometry>
        </mxCell>
        <mxCell id="nBUo0i6XYViC7IQc_473-274" value="+ vector&lt;vector&lt;string&gt;&gt; extractByRow(string dataFile)&#xa;+ vector&lt;vector&lt;string&gt;&gt; extractByColumnIndex(int index, string dataFile)&#xa;+ string getCurrentDate()&#xa;+ int idAutoIncrement()&#xa;+ void seachByCredits()&#xa;+ void searchById()&#xa;+ void searchByDate()" style="text;align=left;verticalAlign=top;spacingLeft=4;spacingRight=4;overflow=hidden;rotatable=0;points=[[0,0.5],[1,0.5]];portConstraint=eastwest;" parent="nBUo0i6XYViC7IQc_473-271" vertex="1">
          <mxGeometry y="26" width="410" height="124" as="geometry" />
        </mxCell>
        <mxCell id="nBUo0i6XYViC7IQc_473-280" value="" style="html=1;verticalAlign=bottom;endArrow=open;dashed=1;endSize=8;rounded=0;" parent="WIyWlLk6GJQsqaUBKTNV-1" source="nBUo0i6XYViC7IQc_473-249" target="nBUo0i6XYViC7IQc_473-255" edge="1">
          <mxGeometry relative="1" as="geometry">
            <mxPoint x="170" y="280" as="sourcePoint" />
            <mxPoint x="90" y="280" as="targetPoint" />
          </mxGeometry>
        </mxCell>
        <mxCell id="nBUo0i6XYViC7IQc_473-283" value="" style="endArrow=none;html=1;rounded=0;" parent="WIyWlLk6GJQsqaUBKTNV-1" source="nBUo0i6XYViC7IQc_473-271" target="nBUo0i6XYViC7IQc_473-249" edge="1">
          <mxGeometry relative="1" as="geometry">
            <mxPoint x="-340" y="280" as="sourcePoint" />
            <mxPoint x="-180" y="280" as="targetPoint" />
          </mxGeometry>
        </mxCell>
        <mxCell id="nBUo0i6XYViC7IQc_473-166" value="" style="html=1;verticalAlign=bottom;endArrow=none;dashed=1;endSize=8;rounded=0;endFill=0;" parent="WIyWlLk6GJQsqaUBKTNV-1" source="nBUo0i6XYViC7IQc_473-291" edge="1">
          <mxGeometry relative="1" as="geometry">
            <mxPoint x="835" y="-100" as="sourcePoint" />
            <mxPoint x="680" y="-220" as="targetPoint" />
          </mxGeometry>
        </mxCell>
        <mxCell id="nBUo0i6XYViC7IQc_473-146" value="occupy" style="endArrow=block;html=1;endSize=12;startArrow=none;startSize=12;startFill=0;rounded=0;fontSize=16;fillColor=none;jumpSize=9;endFill=1;" parent="WIyWlLk6GJQsqaUBKTNV-1" source="nBUo0i6XYViC7IQc_473-116" target="zkfFHV4jXpPFQw0GAbJ--17" edge="1">
          <mxGeometry relative="1" as="geometry">
            <mxPoint x="740" y="860" as="sourcePoint" />
            <mxPoint x="440" y="810" as="targetPoint" />
            <Array as="points" />
          </mxGeometry>
        </mxCell>
        <mxCell id="nBUo0i6XYViC7IQc_473-147" value="1" style="edgeLabel;resizable=0;html=1;align=left;verticalAlign=top;fontSize=16;" parent="nBUo0i6XYViC7IQc_473-146" connectable="0" vertex="1">
          <mxGeometry x="-1" relative="1" as="geometry">
            <mxPoint x="-20" as="offset" />
          </mxGeometry>
        </mxCell>
        <mxCell id="nBUo0i6XYViC7IQc_473-148" value="1" style="edgeLabel;resizable=0;html=1;align=right;verticalAlign=top;fontSize=16;" parent="nBUo0i6XYViC7IQc_473-146" connectable="0" vertex="1">
          <mxGeometry x="1" relative="1" as="geometry">
            <mxPoint x="2" y="-50" as="offset" />
          </mxGeometry>
        </mxCell>
        <mxCell id="nBUo0i6XYViC7IQc_473-149" value="" style="html=1;verticalAlign=bottom;endArrow=none;dashed=1;endSize=8;rounded=0;endFill=0;" parent="WIyWlLk6GJQsqaUBKTNV-1" source="nBUo0i6XYViC7IQc_473-151" edge="1">
          <mxGeometry relative="1" as="geometry">
            <mxPoint x="490" y="350" as="sourcePoint" />
            <mxPoint x="610" y="100" as="targetPoint" />
          </mxGeometry>
        </mxCell>
        <mxCell id="nBUo0i6XYViC7IQc_473-68" value="have" style="endArrow=diamondThin;html=1;endSize=12;startArrow=none;startSize=12;startFill=0;rounded=0;fontSize=16;fillColor=none;jumpSize=9;endFill=1;edgeStyle=orthogonalEdgeStyle;" parent="WIyWlLk6GJQsqaUBKTNV-1" source="zkfFHV4jXpPFQw0GAbJ--17" target="nBUo0i6XYViC7IQc_473-140" edge="1">
          <mxGeometry relative="1" as="geometry">
            <mxPoint x="870" y="-550" as="sourcePoint" />
            <mxPoint x="880" y="-440" as="targetPoint" />
            <Array as="points">
              <mxPoint x="710" y="288" />
            </Array>
          </mxGeometry>
        </mxCell>
        <mxCell id="nBUo0i6XYViC7IQc_473-69" value="1" style="edgeLabel;resizable=0;html=1;align=left;verticalAlign=top;fontSize=16;" parent="nBUo0i6XYViC7IQc_473-68" connectable="0" vertex="1">
          <mxGeometry x="-1" relative="1" as="geometry">
            <mxPoint y="-28" as="offset" />
          </mxGeometry>
        </mxCell>
        <mxCell id="nBUo0i6XYViC7IQc_473-70" value="1" style="edgeLabel;resizable=0;html=1;align=right;verticalAlign=top;fontSize=16;" parent="nBUo0i6XYViC7IQc_473-68" connectable="0" vertex="1">
          <mxGeometry x="1" relative="1" as="geometry">
            <mxPoint x="18" as="offset" />
          </mxGeometry>
        </mxCell>
        <mxCell id="nBUo0i6XYViC7IQc_473-288" value="" style="group" parent="WIyWlLk6GJQsqaUBKTNV-1" vertex="1" connectable="0">
          <mxGeometry x="1020" y="290" width="140" height="150" as="geometry" />
        </mxCell>
        <mxCell id="nBUo0i6XYViC7IQc_473-129" value="&lt;p style=&quot;margin:0px;margin-top:4px;text-align:center;&quot;&gt;&lt;i&gt;&amp;lt;&amp;lt;Enumeration&amp;gt;&amp;gt;&lt;/i&gt;&lt;br&gt;&lt;b&gt;Area&lt;/b&gt;&lt;br&gt;&lt;/p&gt;&lt;div&gt;&lt;b&gt;&lt;br&gt;&lt;/b&gt;&lt;/div&gt;&lt;hr size=&quot;1&quot;&gt;&lt;div style=&quot;height:2px;&quot;&gt;&lt;/div&gt;" style="verticalAlign=top;align=left;overflow=fill;fontSize=12;fontFamily=Helvetica;html=1;" parent="nBUo0i6XYViC7IQc_473-288" vertex="1">
          <mxGeometry width="140" height="150" as="geometry" />
        </mxCell>
        <mxCell id="nBUo0i6XYViC7IQc_473-202" value="+ Hue" style="text;strokeColor=none;fillColor=none;align=left;verticalAlign=top;spacingLeft=4;spacingRight=4;overflow=hidden;rotatable=0;points=[[0,0.5],[1,0.5]];portConstraint=eastwest;" parent="nBUo0i6XYViC7IQc_473-288" vertex="1">
          <mxGeometry x="10" y="62" width="100" height="26" as="geometry" />
        </mxCell>
        <mxCell id="nBUo0i6XYViC7IQc_473-203" value="+ Ha Noi" style="text;strokeColor=none;fillColor=none;align=left;verticalAlign=top;spacingLeft=4;spacingRight=4;overflow=hidden;rotatable=0;points=[[0,0.5],[1,0.5]];portConstraint=eastwest;" parent="nBUo0i6XYViC7IQc_473-288" vertex="1">
          <mxGeometry x="10" y="92" width="100" height="26" as="geometry" />
        </mxCell>
        <mxCell id="nBUo0i6XYViC7IQc_473-204" value="+ Sai Gon" style="text;strokeColor=none;fillColor=none;align=left;verticalAlign=top;spacingLeft=4;spacingRight=4;overflow=hidden;rotatable=0;points=[[0,0.5],[1,0.5]];portConstraint=eastwest;" parent="nBUo0i6XYViC7IQc_473-288" vertex="1">
          <mxGeometry x="10" y="118" width="100" height="26" as="geometry" />
        </mxCell>
        <mxCell id="nBUo0i6XYViC7IQc_473-221" value="" style="html=1;verticalAlign=bottom;endArrow=none;dashed=1;endSize=8;rounded=0;endFill=0;" parent="WIyWlLk6GJQsqaUBKTNV-1" source="nBUo0i6XYViC7IQc_473-167" edge="1">
          <mxGeometry relative="1" as="geometry">
            <mxPoint x="460" y="260" as="sourcePoint" />
            <mxPoint x="610" y="50" as="targetPoint" />
          </mxGeometry>
        </mxCell>
        <mxCell id="nBUo0i6XYViC7IQc_473-290" value="" style="endArrow=none;html=1;rounded=0;" parent="WIyWlLk6GJQsqaUBKTNV-1" source="nBUo0i6XYViC7IQc_473-177" target="nBUo0i6XYViC7IQc_473-271" edge="1">
          <mxGeometry relative="1" as="geometry">
            <mxPoint x="100.00194968553467" y="637" as="sourcePoint" />
            <mxPoint x="119.48308176100625" y="460" as="targetPoint" />
          </mxGeometry>
        </mxCell>
        <mxCell id="nBUo0i6XYViC7IQc_473-291" value="RatingTenant" style="swimlane;fontStyle=0;align=center;verticalAlign=top;childLayout=stackLayout;horizontal=1;startSize=60;horizontalStack=0;resizeParent=1;resizeLast=0;collapsible=1;marginBottom=0;rounded=0;shadow=0;strokeWidth=1;" parent="WIyWlLk6GJQsqaUBKTNV-1" vertex="1">
          <mxGeometry x="790" y="-26" width="210" height="236" as="geometry">
            <mxRectangle x="550" y="140" width="160" height="26" as="alternateBounds" />
          </mxGeometry>
        </mxCell>
        <mxCell id="nBUo0i6XYViC7IQc_473-351" value="- ratingId: int&#xa;- score : int &#xa;- comment : string&#xa;- currentDate : string&#xa;- tenantId: int&#xa;- ownerId; int" style="text;align=left;verticalAlign=top;spacingLeft=4;spacingRight=4;overflow=hidden;rotatable=0;points=[[0,0.5],[1,0.5]];portConstraint=eastwest;" parent="nBUo0i6XYViC7IQc_473-291" vertex="1">
          <mxGeometry y="60" width="210" height="100" as="geometry" />
        </mxCell>
        <mxCell id="nBUo0i6XYViC7IQc_473-297" value="" style="line;html=1;strokeWidth=1;align=left;verticalAlign=middle;spacingTop=-1;spacingLeft=3;spacingRight=3;rotatable=0;labelPosition=right;points=[];portConstraint=eastwest;" parent="nBUo0i6XYViC7IQc_473-291" vertex="1">
          <mxGeometry y="160" width="210" height="8" as="geometry" />
        </mxCell>
        <mxCell id="nBUo0i6XYViC7IQc_473-352" value="Rating(int ratingId, int score&#xa;, string comment, string currentDate&#xa;, int tenantId, int OwnerId)" style="text;align=left;verticalAlign=top;spacingLeft=4;spacingRight=4;overflow=hidden;rotatable=0;points=[[0,0.5],[1,0.5]];portConstraint=eastwest;" parent="nBUo0i6XYViC7IQc_473-291" vertex="1">
          <mxGeometry y="168" width="210" height="62" as="geometry" />
        </mxCell>
        <mxCell id="nBUo0i6XYViC7IQc_473-300" value="" style="endArrow=none;html=1;rounded=0;" parent="WIyWlLk6GJQsqaUBKTNV-1" source="nBUo0i6XYViC7IQc_473-177" target="nBUo0i6XYViC7IQc_473-237" edge="1">
          <mxGeometry relative="1" as="geometry">
            <mxPoint x="1521.53" y="775.2929292929293" as="sourcePoint" />
            <mxPoint x="858.4606930693069" y="640" as="targetPoint" />
          </mxGeometry>
        </mxCell>
        <mxCell id="nBUo0i6XYViC7IQc_473-301" value="" style="endArrow=none;html=1;rounded=0;" parent="WIyWlLk6GJQsqaUBKTNV-1" source="nBUo0i6XYViC7IQc_473-212" target="nBUo0i6XYViC7IQc_473-177" edge="1">
          <mxGeometry relative="1" as="geometry">
            <mxPoint x="827" y="620.0884615384614" as="sourcePoint" />
            <mxPoint x="757" y="639.903846153846" as="targetPoint" />
          </mxGeometry>
        </mxCell>
        <mxCell id="nBUo0i6XYViC7IQc_473-302" value="" style="endArrow=none;html=1;rounded=0;" parent="WIyWlLk6GJQsqaUBKTNV-1" source="nBUo0i6XYViC7IQc_473-151" target="nBUo0i6XYViC7IQc_473-177" edge="1">
          <mxGeometry relative="1" as="geometry">
            <mxPoint x="427.21000000000004" y="406.604651162791" as="sourcePoint" />
            <mxPoint x="360.0027927927931" y="476" as="targetPoint" />
          </mxGeometry>
        </mxCell>
        <mxCell id="nBUo0i6XYViC7IQc_473-303" value="" style="endArrow=none;html=1;rounded=0;edgeStyle=orthogonalEdgeStyle;" parent="WIyWlLk6GJQsqaUBKTNV-1" source="nBUo0i6XYViC7IQc_473-167" target="nBUo0i6XYViC7IQc_473-177" edge="1">
          <mxGeometry relative="1" as="geometry">
            <mxPoint x="413.21" y="230.004651162791" as="sourcePoint" />
            <mxPoint x="346.00279279279306" y="299.4" as="targetPoint" />
            <Array as="points">
              <mxPoint x="360" y="320" />
              <mxPoint x="430" y="320" />
            </Array>
          </mxGeometry>
        </mxCell>
        <mxCell id="nBUo0i6XYViC7IQc_473-305" value="" style="endArrow=none;html=1;rounded=0;" parent="WIyWlLk6GJQsqaUBKTNV-1" source="nBUo0i6XYViC7IQc_473-291" target="nBUo0i6XYViC7IQc_473-177" edge="1">
          <mxGeometry relative="1" as="geometry">
            <mxPoint x="680" y="520.604651162791" as="sourcePoint" />
            <mxPoint x="612.7927927927931" y="590" as="targetPoint" />
          </mxGeometry>
        </mxCell>
        <mxCell id="nBUo0i6XYViC7IQc_473-308" value="make" style="endArrow=block;html=1;endSize=12;startArrow=none;startSize=12;startFill=0;rounded=0;fontSize=16;fillColor=none;jumpSize=9;endFill=1;" parent="WIyWlLk6GJQsqaUBKTNV-1" source="nBUo0i6XYViC7IQc_473-11" target="nBUo0i6XYViC7IQc_473-255" edge="1">
          <mxGeometry relative="1" as="geometry">
            <mxPoint x="0.002277992278109764" y="-110.5" as="sourcePoint" />
            <mxPoint x="14.0177220077219" y="-231.5" as="targetPoint" />
          </mxGeometry>
        </mxCell>
        <mxCell id="nBUo0i6XYViC7IQc_473-309" value="1" style="edgeLabel;resizable=0;html=1;align=left;verticalAlign=top;fontSize=16;" parent="nBUo0i6XYViC7IQc_473-308" connectable="0" vertex="1">
          <mxGeometry x="-1" relative="1" as="geometry">
            <mxPoint x="14" y="2" as="offset" />
          </mxGeometry>
        </mxCell>
        <mxCell id="nBUo0i6XYViC7IQc_473-310" value="1" style="edgeLabel;resizable=0;html=1;align=right;verticalAlign=top;fontSize=16;" parent="nBUo0i6XYViC7IQc_473-308" connectable="0" vertex="1">
          <mxGeometry x="1" relative="1" as="geometry">
            <mxPoint x="6" y="-41" as="offset" />
          </mxGeometry>
        </mxCell>
        <mxCell id="nBUo0i6XYViC7IQc_473-311" value="make" style="endArrow=block;html=1;endSize=12;startArrow=none;startSize=12;startFill=0;rounded=0;fontSize=16;fillColor=none;jumpSize=9;endFill=1;" parent="WIyWlLk6GJQsqaUBKTNV-1" source="zkfFHV4jXpPFQw0GAbJ--0" target="nBUo0i6XYViC7IQc_473-255" edge="1">
          <mxGeometry relative="1" as="geometry">
            <mxPoint x="110.0022779922781" y="-102" as="sourcePoint" />
            <mxPoint x="124.01772200772189" y="-223" as="targetPoint" />
          </mxGeometry>
        </mxCell>
        <mxCell id="nBUo0i6XYViC7IQc_473-312" value="1" style="edgeLabel;resizable=0;html=1;align=left;verticalAlign=top;fontSize=16;" parent="nBUo0i6XYViC7IQc_473-311" connectable="0" vertex="1">
          <mxGeometry x="-1" relative="1" as="geometry">
            <mxPoint y="-10" as="offset" />
          </mxGeometry>
        </mxCell>
        <mxCell id="nBUo0i6XYViC7IQc_473-313" value="1" style="edgeLabel;resizable=0;html=1;align=right;verticalAlign=top;fontSize=16;" parent="nBUo0i6XYViC7IQc_473-311" connectable="0" vertex="1">
          <mxGeometry x="1" relative="1" as="geometry">
            <mxPoint x="31" y="-11" as="offset" />
          </mxGeometry>
        </mxCell>
        <mxCell id="nBUo0i6XYViC7IQc_473-314" value="" style="endArrow=none;html=1;rounded=0;" parent="WIyWlLk6GJQsqaUBKTNV-1" source="nBUo0i6XYViC7IQc_473-249" target="nBUo0i6XYViC7IQc_473-29" edge="1">
          <mxGeometry relative="1" as="geometry">
            <mxPoint x="-650.0014776632302" y="48" as="sourcePoint" />
            <mxPoint x="-631.9602405498281" y="-102" as="targetPoint" />
          </mxGeometry>
        </mxCell>
        <mxCell id="nBUo0i6XYViC7IQc_473-316" value="" style="endArrow=none;html=1;rounded=0;" parent="WIyWlLk6GJQsqaUBKTNV-1" source="zkfFHV4jXpPFQw0GAbJ--0" target="nBUo0i6XYViC7IQc_473-29" edge="1">
          <mxGeometry relative="1" as="geometry">
            <mxPoint x="-430" y="10" as="sourcePoint" />
            <mxPoint x="-430" y="-50" as="targetPoint" />
          </mxGeometry>
        </mxCell>
        <mxCell id="nBUo0i6XYViC7IQc_473-317" value="" style="endArrow=none;html=1;rounded=0;" parent="WIyWlLk6GJQsqaUBKTNV-1" source="nBUo0i6XYViC7IQc_473-11" target="nBUo0i6XYViC7IQc_473-29" edge="1">
          <mxGeometry relative="1" as="geometry">
            <mxPoint x="370" y="-246.3636363636365" as="sourcePoint" />
            <mxPoint x="-345" y="-115.55113636363649" as="targetPoint" />
          </mxGeometry>
        </mxCell>
        <mxCell id="nBUo0i6XYViC7IQc_473-318" value="" style="endArrow=none;html=1;rounded=0;" parent="WIyWlLk6GJQsqaUBKTNV-1" source="nBUo0i6XYViC7IQc_473-5" target="nBUo0i6XYViC7IQc_473-29" edge="1">
          <mxGeometry relative="1" as="geometry">
            <mxPoint x="370" y="-246.3636363636365" as="sourcePoint" />
            <mxPoint x="-345" y="-115.55113636363649" as="targetPoint" />
          </mxGeometry>
        </mxCell>
        <mxCell id="nBUo0i6XYViC7IQc_473-321" value="" style="endArrow=none;html=1;rounded=0;" parent="WIyWlLk6GJQsqaUBKTNV-1" source="nBUo0i6XYViC7IQc_473-167" target="nBUo0i6XYViC7IQc_473-271" edge="1">
          <mxGeometry relative="1" as="geometry">
            <mxPoint x="210" y="365.699393939394" as="sourcePoint" />
            <mxPoint x="-400" y="240.002424242424" as="targetPoint" />
          </mxGeometry>
        </mxCell>
        <mxCell id="nBUo0i6XYViC7IQc_473-325" value="" style="endArrow=none;html=1;rounded=0;" parent="WIyWlLk6GJQsqaUBKTNV-1" source="nBUo0i6XYViC7IQc_473-11" target="nBUo0i6XYViC7IQc_473-271" edge="1">
          <mxGeometry relative="1" as="geometry">
            <mxPoint x="61.84" y="59.999696969697" as="sourcePoint" />
            <mxPoint x="-510.00405940594067" y="340.03" as="targetPoint" />
          </mxGeometry>
        </mxCell>
        <mxCell id="nBUo0i6XYViC7IQc_473-331" value="" style="endArrow=none;html=1;rounded=0;" parent="WIyWlLk6GJQsqaUBKTNV-1" source="nBUo0i6XYViC7IQc_473-249" target="zkfFHV4jXpPFQw0GAbJ--0" edge="1">
          <mxGeometry relative="1" as="geometry">
            <mxPoint x="-500.58823529411757" y="50" as="sourcePoint" />
            <mxPoint x="-453.52941176470586" y="-50" as="targetPoint" />
          </mxGeometry>
        </mxCell>
        <mxCell id="nBUo0i6XYViC7IQc_473-337" value="" style="endArrow=none;html=1;rounded=0;" parent="WIyWlLk6GJQsqaUBKTNV-1" source="nBUo0i6XYViC7IQc_473-129" target="nBUo0i6XYViC7IQc_473-212" edge="1">
          <mxGeometry relative="1" as="geometry">
            <mxPoint x="1186.2632432432433" y="340" as="sourcePoint" />
            <mxPoint x="949.9963513513517" y="734" as="targetPoint" />
          </mxGeometry>
        </mxCell>
        <mxCell id="nBUo0i6XYViC7IQc_473-338" value="" style="endArrow=none;html=1;rounded=0;edgeStyle=orthogonalEdgeStyle;" parent="WIyWlLk6GJQsqaUBKTNV-1" source="nBUo0i6XYViC7IQc_473-129" target="zkfFHV4jXpPFQw0GAbJ--0" edge="1">
          <mxGeometry relative="1" as="geometry">
            <mxPoint x="990" y="386" as="sourcePoint" />
            <mxPoint x="560" y="-330" as="targetPoint" />
            <Array as="points">
              <mxPoint x="1190" y="369" />
              <mxPoint x="1190" y="-240" />
            </Array>
          </mxGeometry>
        </mxCell>
        <mxCell id="nBUo0i6XYViC7IQc_473-340" value="" style="html=1;verticalAlign=bottom;endArrow=none;dashed=1;endSize=8;rounded=0;endFill=0;" parent="WIyWlLk6GJQsqaUBKTNV-1" target="nBUo0i6XYViC7IQc_473-212" edge="1">
          <mxGeometry relative="1" as="geometry">
            <mxPoint x="710" y="130" as="sourcePoint" />
            <mxPoint x="610" y="110" as="targetPoint" />
          </mxGeometry>
        </mxCell>
        <mxCell id="nBUo0i6XYViC7IQc_473-341" value="" style="endArrow=none;html=1;rounded=0;edgeStyle=orthogonalEdgeStyle;" parent="WIyWlLk6GJQsqaUBKTNV-1" source="nBUo0i6XYViC7IQc_473-212" target="nBUo0i6XYViC7IQc_473-274" edge="1">
          <mxGeometry relative="1" as="geometry">
            <mxPoint x="723.7" y="380.00055214723915" as="sourcePoint" />
            <mxPoint x="159.99950495049478" y="659.4300000000001" as="targetPoint" />
            <Array as="points">
              <mxPoint x="870" y="550" />
              <mxPoint x="260" y="550" />
              <mxPoint x="260" y="570" />
              <mxPoint x="-475" y="570" />
            </Array>
          </mxGeometry>
        </mxCell>
        <mxCell id="nBUo0i6XYViC7IQc_473-342" value="" style="group" parent="WIyWlLk6GJQsqaUBKTNV-1" vertex="1" connectable="0">
          <mxGeometry x="1010" y="540" width="140" height="120" as="geometry" />
        </mxCell>
        <mxCell id="nBUo0i6XYViC7IQc_473-343" value="&lt;p style=&quot;margin:0px;margin-top:4px;text-align:center;&quot;&gt;&lt;i&gt;&amp;lt;&amp;lt;Enumeration&amp;gt;&amp;gt;&lt;/i&gt;&lt;br&gt;&lt;b&gt;Status&lt;/b&gt;&lt;/p&gt;&lt;div&gt;&lt;b&gt;&lt;br&gt;&lt;/b&gt;&lt;/div&gt;&lt;hr size=&quot;1&quot;&gt;&lt;div style=&quot;height:2px;&quot;&gt;&lt;/div&gt;" style="verticalAlign=top;align=left;overflow=fill;fontSize=12;fontFamily=Helvetica;html=1;" parent="nBUo0i6XYViC7IQc_473-342" vertex="1">
          <mxGeometry width="140" height="120" as="geometry" />
        </mxCell>
        <mxCell id="nBUo0i6XYViC7IQc_473-344" value="+ Available" style="text;strokeColor=none;fillColor=none;align=left;verticalAlign=top;spacingLeft=4;spacingRight=4;overflow=hidden;rotatable=0;points=[[0,0.5],[1,0.5]];portConstraint=eastwest;" parent="nBUo0i6XYViC7IQc_473-342" vertex="1">
          <mxGeometry x="10" y="59.99736842105263" width="100" height="15.326315789473682" as="geometry" />
        </mxCell>
        <mxCell id="nBUo0i6XYViC7IQc_473-345" value="+ Occupied" style="text;strokeColor=none;fillColor=none;align=left;verticalAlign=top;spacingLeft=4;spacingRight=4;overflow=hidden;rotatable=0;points=[[0,0.5],[1,0.5]];portConstraint=eastwest;" parent="nBUo0i6XYViC7IQc_473-342" vertex="1">
          <mxGeometry x="10" y="79.99578947368421" width="100" height="15.326315789473682" as="geometry" />
        </mxCell>
        <mxCell id="nBUo0i6XYViC7IQc_473-347" value="" style="endArrow=none;html=1;rounded=0;" parent="WIyWlLk6GJQsqaUBKTNV-1" source="nBUo0i6XYViC7IQc_473-343" target="nBUo0i6XYViC7IQc_473-212" edge="1">
          <mxGeometry relative="1" as="geometry">
            <mxPoint x="990" y="390.2777777777778" as="sourcePoint" />
            <mxPoint x="960" y="395.1111111111113" as="targetPoint" />
          </mxGeometry>
        </mxCell>
        <mxCell id="nBUo0i6XYViC7IQc_473-349" value="" style="endArrow=none;html=1;rounded=0;" parent="WIyWlLk6GJQsqaUBKTNV-1" source="zkfFHV4jXpPFQw0GAbJ--17" target="nBUo0i6XYViC7IQc_473-271" edge="1">
          <mxGeometry relative="1" as="geometry">
            <mxPoint x="250" y="80.57055214723914" as="sourcePoint" />
            <mxPoint x="-313.7004950495052" y="360" as="targetPoint" />
          </mxGeometry>
        </mxCell>
        <mxCell id="nBUo0i6XYViC7IQc_473-350" value="" style="endArrow=none;html=1;rounded=0;edgeStyle=orthogonalEdgeStyle;" parent="WIyWlLk6GJQsqaUBKTNV-1" source="nBUo0i6XYViC7IQc_473-249" target="nBUo0i6XYViC7IQc_473-116" edge="1">
          <mxGeometry relative="1" as="geometry">
            <mxPoint x="-430" y="105.28571428571422" as="sourcePoint" />
            <mxPoint x="370" y="-226.1428571428571" as="targetPoint" />
            <Array as="points">
              <mxPoint x="-560" y="-210" />
              <mxPoint x="610" y="-210" />
            </Array>
          </mxGeometry>
        </mxCell>
        <mxCell id="nBUo0i6XYViC7IQc_473-355" value="" style="endArrow=none;html=1;rounded=0;" parent="WIyWlLk6GJQsqaUBKTNV-1" source="nBUo0i6XYViC7IQc_473-343" target="nBUo0i6XYViC7IQc_473-151" edge="1">
          <mxGeometry relative="1" as="geometry">
            <mxPoint x="1010" y="532.2777777777778" as="sourcePoint" />
            <mxPoint x="980" y="501.1111111111113" as="targetPoint" />
          </mxGeometry>
        </mxCell>
        <mxCell id="nBUo0i6XYViC7IQc_473-356" value="" style="group" parent="WIyWlLk6GJQsqaUBKTNV-1" vertex="1" connectable="0">
          <mxGeometry x="120" y="380" width="140" height="190" as="geometry" />
        </mxCell>
        <mxCell id="nBUo0i6XYViC7IQc_473-357" value="&lt;p style=&quot;margin:0px;margin-top:4px;text-align:center;&quot;&gt;&lt;i&gt;&amp;lt;&amp;lt;Enumeration&amp;gt;&amp;gt;&lt;/i&gt;&lt;br&gt;&lt;b&gt;RequestStatus&lt;/b&gt;&lt;/p&gt;&lt;div&gt;&lt;b&gt;&lt;br&gt;&lt;/b&gt;&lt;/div&gt;&lt;hr size=&quot;1&quot;&gt;&lt;div style=&quot;height:2px;&quot;&gt;&lt;/div&gt;" style="verticalAlign=top;align=left;overflow=fill;fontSize=12;fontFamily=Helvetica;html=1;" parent="nBUo0i6XYViC7IQc_473-356" vertex="1">
          <mxGeometry width="140" height="120" as="geometry" />
        </mxCell>
        <mxCell id="nBUo0i6XYViC7IQc_473-360" value="+ Pending" style="text;strokeColor=none;fillColor=none;align=left;verticalAlign=top;spacingLeft=4;spacingRight=4;overflow=hidden;rotatable=0;points=[[0,0.5],[1,0.5]];portConstraint=eastwest;" parent="nBUo0i6XYViC7IQc_473-356" vertex="1">
          <mxGeometry x="10" y="56.99999999999997" width="100" height="26" as="geometry" />
        </mxCell>
        <mxCell id="nBUo0i6XYViC7IQc_473-361" value="+ Accepted" style="text;strokeColor=none;fillColor=none;align=left;verticalAlign=top;spacingLeft=4;spacingRight=4;overflow=hidden;rotatable=0;points=[[0,0.5],[1,0.5]];portConstraint=eastwest;" parent="nBUo0i6XYViC7IQc_473-356" vertex="1">
          <mxGeometry x="10" y="81.99999999999997" width="100" height="26" as="geometry" />
        </mxCell>
        <mxCell id="nBUo0i6XYViC7IQc_473-362" value="" style="endArrow=none;html=1;rounded=0;" parent="WIyWlLk6GJQsqaUBKTNV-1" source="nBUo0i6XYViC7IQc_473-151" target="nBUo0i6XYViC7IQc_473-357" edge="1">
          <mxGeometry relative="1" as="geometry">
            <mxPoint x="218.82" y="340.0006976744184" as="sourcePoint" />
            <mxPoint x="501.1795505617977" y="632.21" as="targetPoint" />
          </mxGeometry>
        </mxCell>
      </root>
    </mxGraphModel>
  </diagram>
</mxfile>
